<svg version="1.1" xmlns="http://www.w3.org/2000/svg" xmlns:xlink="http://www.w3.org/1999/xlink" width="512" height="512" viewBox="0,0,256,256"><g fill="#ffffff" fill-rule="nonzero" stroke="none" stroke-width="1" stroke-linecap="butt" stroke-linejoin="miter" stroke-miterlimit="10" stroke-dasharray="" stroke-dashoffset="0" font-family="none" font-weight="none" font-size="none" text-anchor="none" style="mix-blend-mode: normal"><g transform="translate(0.25,-7.99997) scale(0.5,0.5)"><path d="M255.5,48c43.845,0 84.397,8.5332 121.656,25.5996c37.259,17.0664 66.715,40.2734 88.366,69.6204c21.652,29.346 32.478,61.357 32.478,96.032c0,34.674 -10.826,66.73 -32.478,96.168c-21.651,29.437 -51.062,52.689 -88.231,69.755c-37.169,17.066 -77.766,25.6 -121.791,25.6c-13.893,0 -28.238,-0.994 -43.033,-2.98c-64.234,44.607 -98.425,67.182 -102.575,67.723c-1.985,0.723 -3.88,0.632 -5.684,-0.27c-0.722,-0.542 -1.263,-1.265 -1.624,-2.168c-0.361,-0.903 -0.541,-1.715 -0.541,-2.438v-1.083c1.083,-7.044 9.292,-36.39 24.629,-88.041c-34.8234,-17.337 -62.4746,-40.318 -82.9535,-68.943c-20.479,-28.624 -30.7185,-59.732 -30.7185,-93.323c0,-34.675 10.8259,-66.686 32.4777,-96.032c21.6518,-29.347 51.1072,-52.554 88.3663,-69.6204c37.259,-17.0664 77.811,-25.5996 121.656,-25.5996z"></path></g></g></svg>